<svg  xmlns="http://www.w3.org/2000/svg" xmlns:xlink="http://www.w3.org/1999/xlink" width="383" height="200" viewBox="0 0 407 224"><path transform="translate(0 100)" d="M31.3,0.8C36,0.8 38.5,-1.9 38.5,-6.7L38.5,-28.7L58.5,-56.9C62.2,-62.2 60.3,-67.8 54.4,-67.8C51.2,-67.8 49.1,-66.4 46.9,-63.2L31.5,-41.4L16.2,-63.2C14.1,-66.3 11.7,-67.8 8.7,-67.8C2.5,-67.8 0.7,-61.6 4,-56.9L24.1,-28.7L24.1,-6.7C24.1,-1.9 26.7,0.8 31.3,0.8Z"></path><path transform="translate(59 100)" d="M40.7,1C47.8,0.9 56.7,-1.8 61.4,-6.3C67.4,-11.9 61,-21.5 53.8,-15.9C50,-12.9 44.5,-11.7 39.8,-11.7C26.9,-11.7 19.6,-20.8 19.6,-33.6C19.6,-45.4 26.8,-55.5 39.8,-55.4C46.2,-55.3 49.6,-53.5 53.2,-50.9C60.6,-45.7 67.3,-54.6 60.7,-60.4C56.6,-64.2 50.1,-67.9 40.5,-68C18.6,-68.2 5.2,-53.4 5.2,-33.6C5.2,-13.7 18.4,1.5 40.7,1Z"></path><path transform="translate(127 100)" d="M31.3,0.8C36,0.8 38.5,-1.9 38.5,-6.7L38.5,-28.7L58.5,-56.9C62.2,-62.2 60.3,-67.8 54.4,-67.8C51.2,-67.8 49.1,-66.4 46.9,-63.2L31.5,-41.4L16.2,-63.2C14.1,-66.3 11.7,-67.8 8.7,-67.8C2.5,-67.8 0.7,-61.6 4,-56.9L24.1,-28.7L24.1,-6.7C24.1,-1.9 26.7,0.8 31.3,0.8Z"></path><path transform="translate(186 100)" d="M40.7,1C47.8,0.9 56.7,-1.8 61.4,-6.3C67.4,-11.9 61,-21.5 53.8,-15.9C50,-12.9 44.5,-11.7 39.8,-11.7C26.9,-11.7 19.6,-20.8 19.6,-33.6C19.6,-45.4 26.8,-55.5 39.8,-55.4C46.2,-55.3 49.6,-53.5 53.2,-50.9C60.6,-45.7 67.3,-54.6 60.7,-60.4C56.6,-64.2 50.1,-67.9 40.5,-68C18.6,-68.2 5.2,-53.4 5.2,-33.6C5.2,-13.7 18.4,1.5 40.7,1Z"></path><path transform="translate(254 100)" d="M10.9,0.8C13.9,0.8 15.9,-0.6 18.5,-3.9L34,-23.7L49.6,-3.9C52.1,-0.6 54.1,0.8 57,0.8C62,0.8 66.4,-3.9 61,-10.7L42.3,-34.1L60.3,-56.6C64.6,-61.8 61.9,-67.8 56.3,-67.8C53.2,-67.8 51.2,-66.4 48.8,-63.2L34,-44.3L19.2,-63.2C16.7,-66.4 14.7,-67.8 11.7,-67.8C6.2,-67.8 3.5,-61.8 7.7,-56.6L25.7,-34.1L7,-10.7C2,-4.5 5.3,0.8 10.9,0.8Z"></path><path transform="translate(322 100)" d="M11.3,-0L52.2,-0C56.3,-0 59,-2.1 59,-6C59,-9.9 56.3,-11.9 52.2,-11.9L21.5,-11.9L54.6,-53.4C60,-60.1 57.7,-67 50.3,-67L10.8,-67C6.7,-67 4,-64.9 4,-61.1C4,-57.2 6.7,-55.1 10.8,-55.1L40,-55.1L6.9,-13.6C1.7,-7.1 3.9,-0 11.3,-0Z"></path></svg>