<svg  xmlns="http://www.w3.org/2000/svg" xmlns:xlink="http://www.w3.org/1999/xlink" width="400" height="300" viewBox="0 0 424 324"><path transform="translate(0 100)" d="M91.9,7.2Q74.6,7.2 28.4,-2Q23.1,-3.2 18.7,-3.2Q14.2,-3.2 8.9,-1.4Q7.8,-1.1 7,-1.1Q3.9,-1.1 3.9,-6Q3.9,-7.1 4.95,-8.1Q6,-9.1 14.1,-9.8Q19.8,-14.8 23.3,-19.5L23.4,-19.8Q23.4,-20.7 16.3,-25.3Q13.3,-27.3 13.3,-29.6Q13.3,-31.7 15.8,-35.3Q18.3,-38.9 20.9,-42.5L10.8,-41.3Q5.9,-41.3 4.6,-46.5Q4.5,-46.8 4.5,-47.3Q4.5,-48.6 5.7,-48.6Q8.1,-48.2 9.5,-48.2L27.2,-50Q28.5,-50 30.15,-48.75Q31.8,-47.5 31.8,-46.2Q31.8,-45 31,-44.2Q30,-43.1 27.5,-39.8Q20.7,-31.2 20.7,-30.7Q20.7,-30.5 20.9,-30.4Q25,-27.8 28.15,-25.3Q31.3,-22.8 31.3,-20.1Q31.3,-17.5 28.95,-14.9Q26.6,-12.3 23.8,-9.8Q25.7,-9.7 30.5,-8.8Q72.2,-0.5 94.6,-0.5Q97.7,-0.5 97.7,1.1L97.1,2.7Q95.1,7.2 91.9,7.2ZM79.9,-7.7Q74,-7.7 70.65,-8.8Q67.3,-9.9 66,-12.65Q64.7,-15.4 64.7,-19.8L65.1,-45.4L57.6,-45Q57,-37.6 54.4,-31.2Q50,-20.5 43.1,-14.1Q36.8,-8.4 34.6,-8.4Q33.3,-8.4 33.3,-9.8Q33.3,-10.8 35,-12.6Q45.2,-23.8 49,-37.3Q49.7,-42.1 49.9,-44.7L38.9,-44.1Q34,-44.1 32.6,-50.2Q32.6,-51.5 33.7,-51.5Q34.3,-51.5 35.4,-51.25Q36.5,-51 38.6,-51Q39.8,-51 81.7,-53.1Q83.2,-53.3 86.3,-53.9Q86.8,-53.9 88.3,-53.2Q92.2,-51.3 92.2,-48.9Q92.2,-46.9 89.4,-46.6L72.4,-45.7L72.3,-43.7Q72.3,-32.7 72.1,-21.8Q72.1,-18.3 72.7,-16.9Q73.5,-14.5 79.7,-14.5Q82.9,-14.5 84.8,-15.3Q86.7,-16.1 87.65,-18.6Q88.6,-21.1 89.25,-26.35Q89.9,-31.6 92,-31.6Q94,-31.6 94.25,-28.25Q94.5,-24.9 94.5,-17.1Q94.4,-14.8 93.3,-12.8Q91.1,-7.7 79.9,-7.7ZM45.1,-64.4Q40.2,-64.4 38.8,-70.5Q38.8,-71.8 39.9,-71.8Q40.5,-71.8 41.6,-71.55Q42.7,-71.3 44.8,-71.3Q46,-71.3 75,-73.4Q76.4,-73.5 79.5,-74.2Q80,-74.2 81.5,-73.5Q85.4,-71.7 85.4,-69.2Q85.4,-66 45.1,-64.4ZM28.5,-57.2Q26.9,-57.2 25.3,-59.2Q20.1,-66.1 13.8,-71.7Q12.3,-73 12.3,-74.1Q12.3,-75.2 13.7,-76.45Q15.1,-77.7 16.1,-77.7Q17.1,-77.7 18.95,-76.3Q20.8,-74.9 23.1,-72.85Q25.4,-70.8 27.6,-68.6Q29.8,-66.4 31.25,-64.5Q32.7,-62.6 32.7,-61.8Q32.7,-60.9 31.9,-59.8Q30.1,-57.2 28.5,-57.2Z"></path><path transform="translate(100 100)" d="M26.6,9.8Q25.6,9.8 24.2,9.1Q21.3,7.8 21.3,5.4Q21.3,4.7 21.6,3.1Q21.9,1.5 21.9,-4.6Q22,-22.8 22.2,-29.8Q21.4,-28.3 16.8,-21.6Q11.3,-13.5 8.1,-10.45Q4.9,-7.4 3.9,-7.4Q2.7,-7.4 2.7,-8.8Q2.7,-9.8 3.8,-11.5Q14.3,-27.1 20.8,-44.3L10.2,-43.5Q9.1,-43.5 7.4,-44.15Q5.7,-44.8 4.3,-48.4L4.2,-49.4Q4.2,-50.5 5.4,-50.5L9.6,-50.1Q10.7,-50.1 22.2,-51L22.3,-62.7Q11.4,-59.3 9.1,-59.3Q6.2,-59.3 6.2,-60.7Q6.2,-62.1 9.5,-63.35Q12.8,-64.6 19.45,-67.7Q26.1,-70.8 31.8,-74.6Q33.3,-75.5 34,-77Q34.7,-78.5 35.9,-78.5Q36.9,-78.5 38.15,-77.15Q39.4,-75.8 40.3,-74.2Q41.2,-72.6 41.2,-72Q41.2,-71.3 40.9,-70.9Q40,-69.3 28.9,-65L28.9,-51.4Q36.4,-51.9 37.5,-52.3Q38.6,-52.7 39.5,-52.7Q40.4,-52.7 42.6,-51.15Q44.8,-49.6 44.8,-48.1Q44.8,-46.3 42.4,-46L28.9,-44.9L28.9,-40.6L29.8,-40.6Q31.4,-40.6 36.8,-35.2Q42.6,-29.8 42.6,-28.1Q42.6,-26.3 41.05,-25.1Q39.5,-23.9 38.5,-23.9Q37.4,-23.9 36,-25.6Q32.6,-30.5 28.9,-34L29,6.8Q29,9.8 26.6,9.8ZM52.9,-42.3Q51.5,-42.3 49.8,-43.35Q48.1,-44.4 48.1,-46.7Q48.3,-48.9 48.3,-50.9Q48.3,-51.8 46.8,-66.5Q46.7,-68.4 45.75,-70.65Q44.8,-72.9 44.8,-73.5Q44.8,-74.6 46.6,-74.6Q47.8,-74.6 53.2,-72.6L80.2,-74.2Q82.9,-74.2 84.55,-72.75Q86.2,-71.3 86.2,-70.2Q86.2,-69.2 85.9,-68.7Q85.6,-68.2 83.6,-53.3Q86.1,-50.4 86.1,-49.1Q86.1,-47.5 84.75,-47.3Q83.4,-47.1 55.9,-45.5L55.9,-45.2Q55.9,-42.3 52.9,-42.3ZM55.2,-52.3L76.5,-53.4L77.8,-67.5L54,-66.1L55.2,-52.3ZM43.5,5.4Q39.7,5.4 38.05,4.55Q36.4,3.7 35.4,-0.6Q35.4,-2.4 36.5,-2.4Q37,-2.4 38.15,-2.05Q39.3,-1.7 42,-1.7L62.4,-2.2L62.5,-14.8L51.7,-14.3Q47.5,-14.3 46,-18Q45.4,-19.4 45.4,-20.2Q45.4,-21.5 46.5,-21.5Q47.1,-21.5 48.1,-21.25Q49.1,-21 51,-21L62.6,-21.5L62.7,-31.4L48.4,-30.6Q45.5,-30.6 44.3,-32Q42.1,-34.7 42.1,-36.8Q42.1,-37.9 43.2,-37.9Q43.8,-37.9 44.8,-37.65Q45.8,-37.4 48.8,-37.4Q82,-39.1 83.5,-39.5Q84.4,-39.8 85.1,-39.8Q85.9,-39.8 87.3,-38.9Q90.9,-36.6 90.9,-34.5Q90.9,-32.8 87.7,-32.6L70.1,-31.7L70,-21.7Q79.8,-22.2 81.3,-22.6Q82.2,-22.9 82.9,-22.9Q83.6,-22.9 84.9,-22Q88.6,-19.7 88.6,-17.8Q88.6,-16 85.5,-15.8L69.9,-15.1L69.8,-2.4L87.1,-2.8L92,-3.5Q93,-3.5 94.4,-2.6Q98,-0.4 98,1.8Q98,3.8 94.8,4L43.5,5.4Z"></path><path transform="translate(200 100)" d="M69.3,9.3Q65.9,9.3 56.8,-0.2Q51.9,-5.6 51.9,-6.8Q51.9,-8.3 53.4,-8.3Q54.4,-8.3 57.6,-6Q60.1,-4.2 68.2,0.1L68.2,-0Q71.8,-12.8 73.6,-51.1L62.4,-50.3Q58.5,-20.9 45.2,-2.4Q41.2,3.1 38.1,5.95Q35,8.8 34,8.8Q32.5,8.8 32.5,7.5Q32.5,6.6 33.55,5.15Q34.6,3.7 37.2,-0.2Q50.2,-19.7 54.6,-49.9Q52.6,-49.7 50.65,-49.55Q48.7,-49.4 47.5,-49.4Q44.3,-49.4 42.2,-53.3Q41.4,-54.7 41.4,-55.5Q41.4,-56.7 42.7,-56.7Q43.1,-56.7 44.15,-56.45Q45.2,-56.2 47.3,-56.2Q48.5,-56.2 55.6,-56.7Q56.5,-62.3 56.5,-73Q56.5,-75.6 55.9,-76.8Q55.3,-78 55.3,-78.4Q55.3,-79.9 57.2,-79.9Q58.6,-79.9 60.7,-79.2Q62.8,-78.5 63.55,-77.85Q64.3,-77.2 64.3,-75.6Q64.3,-62.6 63.4,-57.2L77.3,-58.1Q79,-58.1 80.3,-56.8Q81.6,-55.5 81.6,-54L81,-51.7Q78.6,1.6 73,7.3Q70.9,9.3 69.3,9.3ZM21.9,9.5Q16.2,8.2 16.2,5.4Q16.2,4.3 16.7,1.4Q17.2,-1.5 17.2,-3.6L17.5,-46.3Q9.9,-45.7 8.9,-45.7Q7.4,-45.7 5.6,-46.6Q3.8,-47.5 2.6,-51.1Q2.5,-51.4 2.5,-52Q2.5,-53 3.7,-53Q4.3,-53 5.7,-52.7Q7.1,-52.4 8.7,-52.4Q9.4,-52.4 17.5,-53.1L17.7,-73.1Q17.7,-75.2 17,-76.45Q16.3,-77.7 16.3,-78.5Q16.3,-79.6 17.8,-79.6Q18.6,-79.6 20.2,-79.4Q24.9,-78.6 24.9,-75.8L24.8,-53.7Q30.4,-54.2 31.55,-54.55Q32.7,-54.9 33.5,-54.9Q34.4,-54.9 35.8,-54.15Q37.2,-53.4 38.35,-52.2Q39.5,-51 39.5,-49.9Q39.5,-48.1 37.1,-47.8L24.8,-46.8L24.5,6.5Q24.5,9.5 21.9,9.5ZM34.8,-14.7Q34.3,-14.7 33.3,-15.1Q30.3,-16.3 30.3,-18.4Q30.3,-19.3 30.9,-20.3Q36.3,-30.2 39.8,-42.4Q40.4,-44.6 42.6,-44.6Q44.6,-44.6 45.7,-43.65Q46.8,-42.7 46.8,-41.8Q44.5,-30.5 37.3,-16.5Q36.4,-14.7 34.8,-14.7ZM91.8,-14.5Q89.3,-14.5 88.6,-17.8Q85.5,-30.6 82.2,-40.1Q81.9,-41 81.9,-41.7Q81.9,-43.1 83,-43.8Q84.9,-45.2 86.2,-45.2Q87.9,-45.2 88.8,-42.6Q96.8,-22.9 96.8,-17.9Q96.8,-17 95.25,-15.75Q93.7,-14.5 91.8,-14.5Z"></path><path transform="translate(300 100)" d="M78.2,8.9Q74.8,8.9 64.8,-0.2Q59.7,-4.8 59.7,-6.4Q59.7,-7.7 61.2,-7.7Q62.3,-7.7 65.1,-6.1Q75.6,-0.2 76.9,-0.2L76.9,-0.3Q79.3,-7.8 81.15,-21.6Q83,-35.4 83.2,-48.2L71.2,-47.4Q67.8,-21.8 56.1,-6.4Q50.2,1.4 41.8,7.7Q40.2,8.8 39.1,8.8Q37.5,8.8 37.5,7.3Q37.5,6.3 39,4.8Q51.8,-7.8 58.1,-24.3Q61.9,-34.1 63.5,-47.1L52.1,-46.4Q50.2,-46.4 48.9,-48.1Q46.3,-51.5 46.3,-52.5Q46.3,-53.9 47.7,-53.9Q48.2,-53.9 49.1,-53.65Q50,-53.4 52.4,-53.4Q53.6,-53.4 64.4,-54Q65.1,-60.6 65.1,-70.3Q65.1,-75.7 64.45,-76.95Q63.8,-78.2 63.8,-78.9Q63.8,-80 65,-80Q67.2,-80 69.4,-79.4Q73.2,-78.5 73.2,-75.7Q73.2,-64.9 72.1,-54.4L85.1,-55.2Q88.2,-55.2 89.75,-53.9Q91.3,-52.6 91.3,-51.3Q91.3,-50.1 90.95,-49.4Q90.6,-48.7 90.6,-48.3Q90,-30.3 85.6,-3.3Q83.7,8.9 78.2,8.9ZM8.5,0.9Q5,0.9 1.9,-4.8Q1.7,-5.5 1.7,-5.9Q1.7,-7.2 4.1,-7.2Q7.7,-7.2 13,-8.4L12.5,-61.7Q12.5,-65 11.75,-66.4Q11,-67.8 11,-68.7Q11,-69.9 12.8,-69.9Q14,-69.9 19.1,-68L38.4,-69.4Q39.7,-69.4 41.35,-68.2Q43,-67 43,-65.1Q42.6,-63 42.2,-15.4Q50.1,-17.5 50.6,-17.5Q53.1,-17.5 53.1,-16Q53.1,-14.5 50.2,-13.2Q29.7,-4.3 13.8,-0.4L8.5,0.9ZM19.7,-50.2L35.2,-51.1L35.2,-62.5L19.6,-61.4L19.7,-50.2ZM19.8,-32L35.1,-33L35.1,-44.4L19.7,-43.5L19.8,-32ZM20,-9.7Q23.1,-10.4 27.05,-11.4Q31,-12.4 35,-13.4L35.1,-26.3L19.9,-25.4L20,-9.7Z"></path><path transform="translate(0 200)" d="M31.4,1.5Q29.4,1.5 27.2,0.65Q25,-0.2 25,-1.9L25.2,-10.8L25.2,-29Q15.7,-46.3 4.7,-62.3Q2.6,-65.2 1.75,-66.3Q0.9,-67.4 0.9,-67.9Q0.9,-69.4 3,-70.05Q5.1,-70.7 7.1,-70.7Q9.3,-70.7 9.9,-69.8Q10.7,-68.5 11.6,-66.75Q12.5,-65 14.95,-61Q17.4,-57 21.65,-50.15Q25.9,-43.3 29.4,-37.2Q37.8,-50.8 43.15,-59.3Q48.5,-67.8 49.8,-70.2Q50.6,-71.5 52.7,-71.5Q54.6,-71.5 56.7,-70.55Q58.8,-69.6 58.8,-68.2L58.5,-67.5Q51,-58.4 36.5,-34.2L33.6,-29.2Q33.6,-10.7 33.9,-0.1Q33.9,1.5 31.4,1.5Z"></path><path transform="translate(60 200)" d="M35.7,2.4Q26.9,2.4 19.8,-0.85Q12.7,-4.1 8.6,-11.1Q4.5,-18.1 4.5,-28.2Q4.5,-47.2 14.9,-59.55Q25.3,-71.9 40.8,-71.9Q56,-71.9 63.3,-63.2Q63.7,-62.6 63.7,-61.4Q63.7,-60.1 62.25,-58.2Q60.8,-56.3 59.4,-56.3Q57.9,-56.3 57.1,-57.5Q52.7,-64.3 41,-64.3Q29.2,-64.3 21.3,-54.6Q12.9,-44.7 12.9,-28.9Q12.9,-13.2 24.1,-7.7Q29.3,-5.1 35.1,-5.1Q40.8,-5.1 45.8,-6.8Q50.8,-8.5 55.45,-11.65Q60.1,-14.8 63.1,-18.9Q64.5,-20.6 66.1,-20.6Q68,-20.6 68,-18.7Q68,-17.2 66.5,-14.7Q63.1,-8.7 55.9,-3.9Q46.9,2.4 35.7,2.4Z"></path><path transform="translate(130 200)" d="M31.4,1.5Q29.4,1.5 27.2,0.65Q25,-0.2 25,-1.9L25.2,-10.8L25.2,-29Q15.7,-46.3 4.7,-62.3Q2.6,-65.2 1.75,-66.3Q0.9,-67.4 0.9,-67.9Q0.9,-69.4 3,-70.05Q5.1,-70.7 7.1,-70.7Q9.3,-70.7 9.9,-69.8Q10.7,-68.5 11.6,-66.75Q12.5,-65 14.95,-61Q17.4,-57 21.65,-50.15Q25.9,-43.3 29.4,-37.2Q37.8,-50.8 43.15,-59.3Q48.5,-67.8 49.8,-70.2Q50.6,-71.5 52.7,-71.5Q54.6,-71.5 56.7,-70.55Q58.8,-69.6 58.8,-68.2L58.5,-67.5Q51,-58.4 36.5,-34.2L33.6,-29.2Q33.6,-10.7 33.9,-0.1Q33.9,1.5 31.4,1.5Z"></path><path transform="translate(190 200)" d="M35.7,2.4Q26.9,2.4 19.8,-0.85Q12.7,-4.1 8.6,-11.1Q4.5,-18.1 4.5,-28.2Q4.5,-47.2 14.9,-59.55Q25.3,-71.9 40.8,-71.9Q56,-71.9 63.3,-63.2Q63.7,-62.6 63.7,-61.4Q63.7,-60.1 62.25,-58.2Q60.8,-56.3 59.4,-56.3Q57.9,-56.3 57.1,-57.5Q52.7,-64.3 41,-64.3Q29.2,-64.3 21.3,-54.6Q12.9,-44.7 12.9,-28.9Q12.9,-13.2 24.1,-7.7Q29.3,-5.1 35.1,-5.1Q40.8,-5.1 45.8,-6.8Q50.8,-8.5 55.45,-11.65Q60.1,-14.8 63.1,-18.9Q64.5,-20.6 66.1,-20.6Q68,-20.6 68,-18.7Q68,-17.2 66.5,-14.7Q63.1,-8.7 55.9,-3.9Q46.9,2.4 35.7,2.4Z"></path><path transform="translate(260 200)" d="M53.9,1.9Q51.9,1.9 50.9,0.6Q49.9,-0.7 48.3,-3.2Q46.7,-5.7 42.5,-11.65Q38.3,-17.6 30,-30.1Q16.7,-10.7 14.1,-6.75Q11.5,-2.8 10.8,-1.75Q10.1,-0.7 9.35,0.45Q8.6,1.6 6.3,1.6Q4.2,1.6 2.25,0.75Q0.3,-0.1 0.3,-1.5Q0.3,-2 0.9,-2.9Q6.5,-9.3 11.1,-16.2Q15.7,-23.1 25.4,-36.9Q10.8,-59.2 4.9,-65.9Q3.9,-67 3.9,-67.7Q3.9,-69.4 6.15,-70.4Q8.4,-71.4 10.2,-71.4Q12.2,-71.4 12.9,-70.3Q15.4,-65.6 21.6,-56.5Q27.8,-47.4 30.7,-43Q45.2,-63.3 49.5,-69.8Q50.2,-70.6 51.8,-70.6Q53.3,-70.6 55.3,-69.3Q57.3,-68 57.3,-66.9Q57.3,-65.8 55.7,-64.2Q51.4,-59.8 35,-36.1Q46.1,-19.4 50.4,-13.8Q54.7,-8.2 59.4,-3.2Q60,-2.6 60,-1.9Q60,-0.4 57.85,0.75Q55.7,1.9 53.9,1.9Z"></path><path transform="translate(320 200)" d="M6.8,1.3Q5.4,1.3 3.8,-0.55Q2.2,-2.4 2.2,-3.7Q2.2,-4.9 2.45,-5.6Q2.7,-6.3 4,-7.45Q5.3,-8.6 5.7,-9.1Q23.4,-36.7 43.8,-63L15.5,-61L12.4,-60.6Q11,-60.6 9.35,-62.45Q7.7,-64.3 7.7,-66.4Q7.7,-68.9 9.3,-68.9Q13.7,-68.5 15.6,-68.5Q17.4,-68.5 31.8,-69.5Q46.2,-70.5 48.45,-70.8Q50.7,-71.1 52.1,-71.1Q53.8,-71.1 55.3,-69Q56.8,-66.9 56.8,-65.5Q56.8,-63.8 55.7,-63.3Q54.1,-62.8 52.2,-60.6Q32.8,-36.9 13.9,-6.9Q20,-7.4 37.4,-7.4L50.2,-7.3Q52.4,-7.3 53.9,-7.4Q55.7,-7.4 56.75,-5.3Q57.8,-3.2 57.8,-1.5Q57.8,0.7 56,0.7Q52.2,0.3 45.7,0.1L29.2,0.1Q11.3,0.1 8.8,1Q7.9,1.3 6.8,1.3Z"></path></svg>